<?xml version="1.0" encoding="utf-8"?>
<!-- Generator: Adobe Illustrator 25.2.1, SVG Export Plug-In . SVG Version: 6.00 Build 0)  -->
<svg version="1.1" id="Lager_1" xmlns="http://www.w3.org/2000/svg" xmlns:xlink="http://www.w3.org/1999/xlink" x="0px" y="0px"
	 viewBox="0 0 16 11.3" style="enable-background:new 0 0 16 11.3;" xml:space="preserve">
<style type="text/css">
	.st0{fill:#998675;}
</style>
<path class="st0" d="M16,5.7c0,0-3-5.5-8-5.5S0,5.7,0,5.7s3,5.5,8,5.5S16,5.7,16,5.7z M1.2,5.7c0.5-0.7,1-1.4,1.7-2
	c1.3-1.3,3-2.5,5.2-2.5s3.9,1.2,5.2,2.5c0.6,0.6,1.2,1.3,1.7,2c-0.1,0.1-0.1,0.2-0.2,0.3c-0.3,0.5-0.8,1.1-1.5,1.8
	c-1.3,1.3-3,2.5-5.2,2.5c-2.1,0-3.9-1.2-5.2-2.5C2.2,7.1,1.7,6.4,1.2,5.7L1.2,5.7z"/>
<path class="st0" d="M8,3.2c-1.4,0-2.5,1.1-2.5,2.5S6.6,8.2,8,8.2s2.5-1.1,2.5-2.5S9.4,3.2,8,3.2z M4.5,5.7c0-1.9,1.6-3.5,3.5-3.5
	s3.5,1.6,3.5,3.5S9.9,9.2,8,9.2S4.5,7.6,4.5,5.7z"/>
</svg>
