<?xml version="1.0" encoding="utf-8"?>
<!-- Generator: Adobe Illustrator 25.2.1, SVG Export Plug-In . SVG Version: 6.00 Build 0)  -->
<svg version="1.1" id="Lager_1" xmlns:serif="http://www.serif.com/"
	 xmlns="http://www.w3.org/2000/svg" xmlns:xlink="http://www.w3.org/1999/xlink" x="0px" y="0px" viewBox="0 0 496.1 496.1"
	 style="enable-background:new 0 0 496.1 496.1;" xml:space="preserve">
<style type="text/css">
	.st0{fill:none;}
	.st1{fill-rule:evenodd;clip-rule:evenodd;fill:#3B5998;}
	.st2{fill-rule:evenodd;clip-rule:evenodd;fill:#FFFFFF;}
</style>
<rect id="Artboard6" x="-49.6" y="-49.6" class="st0" width="595.3" height="595.3"/>
<path class="st1" d="M496.1,49.6c0-13.1-5.2-25.8-14.5-35.1S459.6,0,446.5,0c-95,0-301.8,0-396.9,0C36.5,0,23.8,5.2,14.5,14.5
	S0,36.5,0,49.6c0,95,0,301.8,0,396.9c0,13.1,5.2,25.8,14.5,35.1s21.9,14.5,35.1,14.5c95,0,301.8,0,396.9,0
	c13.1,0,25.8-5.2,35.1-14.5s14.5-21.9,14.5-35.1C496.1,351.4,496.1,144.7,496.1,49.6z"/>
<path class="st2" d="M419.5,153.1c0,0-31.3,0-54.6,0c-13.7,0-24.8,11.1-24.8,24.8c0,21.9,0,50.4,0,50.4h79.4l-19.4,75.6h-60.1v192.2
	h-75.6V303.9h-65.9v-75.6h65.9c0,0,0-23.3,0-51.6c0-26.3,10.5-51.5,29.1-70.1c18.6-18.6,43.8-29.1,70.1-29.1c30.3,0,55.8,0,55.8,0
	V153.1z"/>
</svg>
