<?xml version="1.0" encoding="utf-8"?>
<!-- Generator: Adobe Illustrator 25.2.1, SVG Export Plug-In . SVG Version: 6.00 Build 0)  -->
<svg version="1.1" id="Lager_1" xmlns:serif="http://www.serif.com/"
	 xmlns="http://www.w3.org/2000/svg" xmlns:xlink="http://www.w3.org/1999/xlink" x="0px" y="0px" viewBox="0 0 498.9 498.9"
	 style="enable-background:new 0 0 498.9 498.9;" xml:space="preserve">
<style type="text/css">
	.st0{fill:none;}
	.st1{fill-rule:evenodd;clip-rule:evenodd;fill:#EB4134;}
	.st2{fill-rule:evenodd;clip-rule:evenodd;fill:#34AA51;}
	.st3{fill-rule:evenodd;clip-rule:evenodd;fill:#FBBE04;}
	.st4{fill-rule:evenodd;clip-rule:evenodd;fill:#4186F7;}
</style>
<rect id="Artboard2" x="-48.2" y="-48.2" class="st0" width="595.3" height="595.3"/>
<g>
	<path class="st1" d="M74.1,74.1C119,29.2,181,1.4,249.4,1.4s130.5,27.8,175.4,72.7l-70.1,70.1c-26.9-26.9-64.1-43.6-105.2-43.6
		s-78.3,16.7-105.2,43.6L74.1,74.1z"/>
	<path class="st2" d="M354.7,354.7l70.1,70.1c-44.9,44.9-106.9,72.7-175.4,72.7S119,469.7,74.1,424.8l70.1-70.1
		c26.9,26.9,64.1,43.6,105.2,43.6S327.7,381.6,354.7,354.7z"/>
	<path class="st3" d="M74.1,74.1l70.1,70.1c-26.9,26.9-43.6,64.1-43.6,105.2s16.7,78.3,43.6,105.2l-70.1,70.1
		C29.2,379.9,1.4,317.9,1.4,249.4S29.2,119,74.1,74.1z"/>
	<path class="st4" d="M249.4,199.8h243.1c3.2,16,5,32.6,5,49.6c0,17-1.7,33.6-5,49.6c-9.9,48.6-34,92-67.7,125.8l-70.1-70.1
		c15.5-15.5,27.7-34.5,35.1-55.6H249.4L249.4,199.8L249.4,199.8z"/>
</g>
</svg>
